<?xml version="1.0" standalone="no"?>
<!DOCTYPE svg PUBLIC "-//W3C//DTD SVG 20010904//EN"
 "http://www.w3.org/TR/2001/REC-SVG-20010904/DTD/svg10.dtd">
<svg version="1.0" xmlns="http://www.w3.org/2000/svg"
 width="81.000000pt" height="81.000000pt" viewBox="0 0 81.000000 81.000000"
 preserveAspectRatio="xMidYMid meet">
<metadata>
Created by potrace 1.11, written by Peter Selinger 2001-2013
</metadata>
<g transform="translate(0.000000,81.000000) scale(0.100000,-0.100000)"
fill="#000000" stroke="none">
<path d="M343 774 c-60 -30 -81 -118 -41 -170 51 -65 162 -174 178 -174 21 0
177 160 190 195 38 101 -66 201 -160 152 -21 -11 -31 -11 -55 -1 -40 17 -74
17 -112 -2z m115 -97 l22 -20 23 20 c30 28 65 37 82 23 26 -21 16 -43 -45
-108 l-60 -63 -60 63 c-62 66 -72 90 -42 107 21 13 50 5 80 -22z"/>
<path d="M25 405 c-24 -23 -25 -28 -25 -173 0 -212 -21 -196 269 -200 280 -4
266 -9 381 128 30 35 65 76 77 90 64 74 73 86 73 101 0 23 -16 33 -78 54 -73
23 -106 15 -190 -50 -38 -30 -72 -55 -75 -55 -3 0 -17 20 -31 45 -43 72 -79
85 -241 85 -131 0 -137 -1 -160 -25z m316 -84 c16 -16 29 -34 29 -40 0 -7 -31
-11 -85 -11 l-85 0 0 -40 0 -40 128 0 127 0 94 75 c87 70 131 91 131 64 0 -12
-75 -104 -144 -176 l-40 -43 -208 0 -208 0 0 120 0 120 116 0 c114 0 116 0
145 -29z"/>
</g>
</svg>
